<svg xmlns="http://www.w3.org/2000/svg" xmlns:xlink="http://www.w3.org/1999/xlink" id="Layer_1" x="0px" y="0px" viewBox="0 0 512 512" style="enable-background:new 0 0 512 512;" xml:space="preserve"><g id="_01_align_center">	<path d="M254.89,512.19l-7.55-3.35C238.93,505.15,42.67,416.51,42.67,256V116.82c0.02-27.47,17.66-51.83,43.75-60.42L256,0.19  l169.58,56.21c26.1,8.58,43.74,32.94,43.75,60.42V256c0,182.98-198.14,250.77-206.59,253.59L254.89,512.19z M256,44.93L99.93,96.68  c-8.71,2.85-14.6,10.97-14.59,20.14V256c0,117.21,137.39,193.24,171.67,210.37c34.22-13.76,169.66-76.76,169.66-210.37V116.82  c0.01-9.16-5.88-17.29-14.59-20.14L256,44.93z"></path>	<path d="M237.03,310.23h-0.7c-10.91-0.17-21.28-4.79-28.69-12.8l-49.19-51.2l30.74-29.48l47.87,49.92l110.53-110.53l30.17,30.17  L265.51,298.54C257.96,306.08,247.71,310.29,237.03,310.23z"></path></g></svg>